# xmcd CD database file
#
# Track frame offsets:
#	150
#	32289
#	49088
#	59865
#	74661
#	87814
#	103554
#	116078
#	133717
#	146261
#	160022
#	170513
#	180130
#	189291
#	202634
#	213886
#	225214
#	235858
#
# Disc length: 3331 seconds
#
# Revision: 2
# Processed by: cddbd v1.4b41PL1 Copyright (c) Steve Scherf et al.
# Submitted via: Feurio! 1.50.2ß - http://www.feurio.com
#
DISCID=e30d0112
DTITLE=Various Artist - Country
DYEAR=1900
DGENRE=
TTITLE0=??? - Track 01
TTITLE1=Willie Nelson - Pretty Paper
TTITLE2=Roger Miller - King Of The Road
TTITLE3=The Kingston Trio - Tom Dooley
TTITLE4=Kenny Rogers - Ruby
TTITLE5=Billie Jo Spears - Blanket On The Ground
TTITLE6=Johnny Cash - Folsom Prison Blues
TTITLE7=Skeeter Davis - Always On My Mind
TTITLE8=Faron Young - It`s Four In The Mourning
TTITLE9=B.J. Thomas - I`m So Lonesome I Could Cry
TTITLE10=Jimmie Rodgers - Kisses Sweeter Than Wine
TTITLE11=Ned Miller - From A Jack To A King
TTITLE12=Frankie Lane - Rawhide
TTITLE13=Lynn Anderson - Rose Garden
TTITLE14=Waylon Jennings - Sally Was A Good Old Girl
TTITLE15=Dolly Parton - Makin` Believe
TTITLE16=Freddy Fender - A Man Can Cry
TTITLE17=Glen Cambell - Ahinestone Cowboy
EXTD=
EXTT0=
EXTT1=
EXTT2=
EXTT3=
EXTT4=
EXTT5=
EXTT6=
EXTT7=
EXTT8=
EXTT9=
EXTT10=
EXTT11=
EXTT12=
EXTT13=
EXTT14=
EXTT15=
EXTT16=
EXTT17=
PLAYORDER=
